<?xml version="1.0" standalone="no"?>
<!DOCTYPE svg PUBLIC "-//W3C//DTD SVG 1.1//EN" "http://www.w3.org/Graphics/SVG/1.1/DTD/svg11.dtd" >
<!--
2013-9-30: Created.
-->
<svg>
<metadata>
Created by iconfont
</metadata>
<defs>

<font id="iconfont" horiz-adv-x="1024" >
  <font-face
    font-family="iconfont"
    font-weight="500"
    font-stretch="normal"
    units-per-em="1024"
    ascent="896"
    descent="-128"
  />
    <missing-glyph />
    
    <glyph glyph-name="wo" unicode="&#58888;" d="M521.424138 720.724157c-238.699474 0-432.193373-193.46013-432.193373-432.193373 0-238.669798 193.493899-432.193373 432.193373-432.193373 238.70152 0 432.193373 193.522552 432.193373 432.193373C953.616488 527.264027 760.124635 720.724157 521.424138 720.724157zM804.83186 6.061434c-36.656875 83.381036-109.390409 147.099243-198.603267 171.298388 54.397934 29.951149 91.273796 87.787392 91.273796 154.286945 0 97.262184-78.831416 176.078251-176.078251 176.078251-97.244788 0-176.078251-78.816067-176.078251-176.078251 0-68.000743 38.626739-126.901225 95.105055-156.229181-88.571245-26.260084-160.149467-91.726098-194.836477-176.360683C169.142793 71.934724 121.2449 174.543683 121.2449 288.531807c0 221.035162 179.160449 400.178215 400.178215 400.178215 221.020836 0 400.178215-179.143053 400.178215-400.178215C921.602354 178.263401 876.973924 78.437835 804.83186 6.061434z"  horiz-adv-x="1024" />

    
    <glyph glyph-name="my" unicode="&#58890;" d="M997.053-81.448v-115.604h-970.105v115.604l323.368 207.764v80.842c-19.941 0-38.373 20.076-55.35 60.227-17.004 40.152-25.492 73.971-25.492 101.457v161.684c0 66.803 23.714 123.958 71.168 171.385 47.427 47.427 104.529 71.141 171.358 71.141 66.829 0 123.958-23.714 171.385-71.141 47.427-47.427 71.141-104.583 71.141-171.385v-161.684c0-27.486-8.461-61.305-25.465-101.457-16.977-40.152-35.409-60.227-55.377-60.227v-80.842l323.368-207.764z"  horiz-adv-x="1024" />

    
    <glyph glyph-name="fuzhuangpifashichang01" unicode="&#58965;" d="M141.697721 34.059092c-55.239092 0-55.881728 59.551304-26.866904 74.435293l341.696266 216.870306 0 45.019333 47.346331 0 0-1.189082c29.752628 9.272177 51.503001 38.044478 51.503001 72.086805 0 41.561581-32.336476 75.237565-72.218812 75.237565-34.819017 0-63.84919-25.672706-70.641897-59.81941l0.618077 0 0-11.314697c0-16.45067-13.250792-29.806863-29.596062-29.806863-16.325827 0-29.601178 13.351076-29.601178 29.806863L353.936543 456.725484l0.902556 0c7.335059 67.079768 61.937654 119.17731 128.294968 119.17731 71.339792 0 129.171941-60.255339 129.171941-134.596488 0-46.700625-23.119557-87.403652-57.703213-111.532189l348.56572-221.25415c44.588521-25.828248 28.321022-74.53967-5.073552-74.53967C878.005416 33.981321 150.553413 34.059092 141.697721 34.059092zM749.255077 111.438437 509.04725 263.889571l-0.005117 0L268.828167 111.438437 749.255077 111.438437zM509.042133 263.889571"  horiz-adv-x="1024" />

    
    <glyph glyph-name="youhaowucanchu" unicode="&#58900;" d="M961.4 441.3c-5.2 5.4-12 8.4-19.1 8.4-6.6 0-12.9-2.5-18.1-7.3-21.8-19.9-38-37.3-51.1-54.9-9.8-13.1-14.5-27.1-14.3-42.8 0.4-42.6 0.3-97.3 0.2-145.6 0-12.3 0-24-0.1-34.9 0-8.1-0.1-17.7-0.7-27.6-1.9-30.9-13-58.6-33.1-82.2-29.2-34.3-67.4-51.7-113.6-51.7-67.6 0-119.8-0.1-170.8-0.1-77.1 0-147.3 0.1-227.7 0.2-13.6 0-25.9 1.4-36.6 4.1-50.2 12.7-84.8 43.9-103 92.7-5.4 14.6-8.1 31.2-8.1 50.7-0.1 56.3-0.1 133.3 0 192.5l0 2 2 0c73 0 171.1 0 257.7 0 53.4 0 103.9 0 144.6 0 2.3 0 4.8 0.2 7.8 0.5 8.3 0.9 15.7 6 19.8 13.5 4.1 7.6 4.2 16.6 0.4 24.1-5.1 10-13.7 14.8-26.4 14.8l-0.1 0c-24 0-49.3-0.1-82.2-0.1-15.5 0-31 0-46.4 0-15.3 0-30.5 0-45.8 0l-19.6 0-60.3 0c-60.3 0-131.3 0-170.1 0l-1 0-0.6 0.8c-12 15.6-27 30.1-47.2 45.5-4.8 3.6-10.3 5.6-16 5.6l0 0c-11.5 0-21.6-7.7-25.1-19.2-3.3-10.7 0.6-21.2 10.9-29.6 11.4-9.3 26-21.9 38-37.4 4.9-6.4 7.1-12.5 7.1-19.9-0.2-29.8-0.2-65.5-0.1-100.1 0-31.1 0-63.3-0.1-90.4-0.2-35.5 7-66.9 21.9-95.9 15.7-30.6 38.3-55.7 67-74.6 16.8-11.1 35-19.4 54.1-24.9 18.5-5.3 38.4-7.9 59.2-7.9l0.9 0c26.7 0.1 53.3 0.1 83.5 0.1 18.3 0 36.2 0 54.8 0 19.9 0 40.6 0 63.1 0l0.1 0 0.1 0c19.3 0 36.6 0 52.9 0 14.6 0 28.4 0 42.2 0 25.3 0 56.7 0 98.2 0.1 12.4 0 23.4 0.8 33.6 2.3 42 6.4 78.7 24.7 109.1 54.6 19.8 19.4 35 42.6 45.3 68.9 9.2 23.6 13.6 48.6 13.5 76.5 0 20.5 0 43.4 0 67.6 0 41.2 0 83.8-0.2 118.8-0.1 9.6 2.6 17 8.3 23 11.9 12.5 25.9 27.2 40.3 42.3C970.8 415 971.3 431 961.4 441.3zM909.5 676.7l-47-67.5c-85.1-122.1-173.1-248.3-259.4-372.5-4.8-7-9.6-11-19.6-11-0.3 0-0.7 0-1 0-13.3 0.3-27.8 0.5-45.8 0.5-9.3 0-18.7 0-27.8-0.1-9.1 0-18.6-0.1-27.8-0.1-7.7 0-15.4 0-23.1 0-7.8 0-15.5 0-23.3 0-11.7 0-23.4 0-35.1 0l-1.6 0c-1.6 0-3.2 0-4.8 0-1.6 0-3.2 0-4.8 0-6.3 0-13-0.1-19.6-0.4-11.6-0.7-21.5-10-22.7-21.3-0.9-9.1-0.7-17.8 0.5-25.9 2.5-16.9 8.4-32.2 17.5-45.4 8.9-12.9 20.8-23.9 35.6-32.8 29.5-17.7 59.5-26.7 89.4-26.7 29.8 0 59.7 8.9 89.2 26.5 29.8 17.8 47.7 43.8 53.2 77.1l0 0c0.9 5.6 1.8 10.8 5.4 16C734.2 332.5 833 474.3 928.5 611.4l23.1 33.2 0.1 0.1c1.8 2.6 3.7 5.3 5.2 8.1 3.6 6.7 4 14.6 1.1 21.8-2.9 7.3-8.8 12.8-16.1 15.2-3 1-6 1.5-8.8 1.5C924.2 691.2 916.3 686.3 909.5 676.7zM573.8 170.1c-3.3-7.2-8.3-13.4-15.9-19.7-18.8-15.5-41.3-23-68.8-23l-0.7 0c-27.4 0.1-49.5 7.6-67.6 22.7-4.3 3.6-8.1 8-11.7 12.2-1.6 1.9-3.3 3.8-5 5.7l-1.1 1.2 1 1.3 0.6 0.8 0.6 0.8 0.6 0.8 1 0L572 172.9l3.1 0L573.8 170.1zM439.5 548.3c-3.5-11.6-11-20.6-18.3-29.2-6.9-8.2-8.1-17.9-3.3-27.8 4.4-9.1 12-14.6 21.1-14.9l0.2 0c9.5 0 16 2.4 21.1 7.8 14.9 15.6 25.2 32.8 30.6 51.2 5.5 18.4 6.2 38.5 2.1 59.6-4.3 22.4-15.4 42.8-34 62.5-34.9 32.9-30.9 56-22.7 80.7C440.6 750.4 448 762.9 458 774.3c7.2 8.7 11.5 27.7 1.7 36.7-5.1 4.7-11.6 7.3-18.2 7.3-6.8 0-13.3-2.7-18.3-7.7-11.6-11.6-23.2-30-31.8-50.4C382.6 739.3 377.8 718.8 378 702.5c0.3-32.8 22.3-60.5 46.1-85.5C442.2 597.8 447.4 574.7 439.5 548.3zM617.5 548.3c-3.5-11.6-11-20.6-18.3-29.2-6.9-8.2-8.1-17.9-3.3-27.8 4.4-9.1 12-14.6 21.1-14.9l0.2 0c9.5 0 16 2.4 21.1 7.8 14.9 15.6 25.2 32.8 30.6 51.2 5.5 18.4 6.2 38.5 2.1 59.6-4.3 22.4-15.4 42.8-34 62.5-34.9 32.9-30.9 56-22.7 80.7C618.6 750.4 626 762.9 636 774.3c7.2 8.7 11.5 27.7 1.7 36.7-5.1 4.7-11.6 7.3-18.2 7.3-6.8 0-13.3-2.7-18.3-7.7-11.6-11.6-23.2-30-31.8-50.4C560.6 739.3 555.8 718.8 556 702.5c0.3-32.8 22.3-60.5 46.1-85.5C620.2 597.8 625.4 574.7 617.5 548.3z"  horiz-adv-x="1024" />

    
    <glyph glyph-name="bao" unicode="&#59012;" d="M910.574183 630.994394l-80.223113 0 0-619.291608 80.223113 0c26.599821 0 48.167023 21.567201 48.167023 48.167023L958.741205 582.827371C958.741205 609.430262 937.174004 630.994394 910.574183 630.994394zM63.791373 582.827371l0-522.956539c0-26.599821 21.561062-48.167023 48.168046-48.167023l80.217996 0L192.177416 630.994394l-80.217996 0C85.352435 630.994394 63.791373 609.430262 63.791373 582.827371zM677.414889 708.300061c0 26.603915-21.566178 48.168046-48.168046 48.168046L393.279596 756.468107c-26.605961 0-48.167023-21.564132-48.167023-48.168046l0-77.305667L260.148483 630.994394l0-619.291608 502.231519 0L762.380002 630.994394l-84.96409 0L677.415912 708.300061zM379.091456 687.399031c0 18.536168 16.910135 33.55728 37.774325 33.55728l185.012737 0c20.87033 0 37.773302-15.021112 37.773302-33.55728l0-56.404638L379.091456 630.994394 379.091456 687.399031z"  horiz-adv-x="1024" />

    
    <glyph glyph-name="wo1" unicode="&#59154;" d="M665.010 241.584c-53.193 12.821-79.535 82.526-32.482 132.028 62.96 60.447 104.923 163.683 104.923 266.411-0 159.102-100.278 255.976-224.003 255.976-123.725 0-224.003-96.874-224.003-256.008 0-102.378 41.676-205.296 104.287-265.807h-0.382c47.976-49.694 21.252-120.321-32.546-132.824-208.223-40.213-359.372-155.253-359.372-241.373 0-106.068 229.22-127.988 512.016-127.988s512.016 21.952 512.016 127.988c0 86.28-151.658 201.574-360.454 241.596z"  horiz-adv-x="1026" />

    
    <glyph glyph-name="wo2" unicode="&#59118;" d="M232.4224 576.06656c0 150.21056 124.33408 271.92832 277.67808 271.92832 153.33888 0 277.67808-121.71776 277.67808-271.92832s-124.3392-271.92832-277.67808-271.92832-277.67808 121.71776-277.67808 271.92832m-48.9728 0c0-129.00864 77.93152-240.25088 190.25408-290.87744-189.12768-53.59616-331.12576-215.71584-351.14496-413.05088h49.18272c24.43776 215.97184 211.3536 383.99488 438.36416 383.99488 226.95936 0 413.93152-168.02304 438.30784-383.99488h49.23392c-20.0192 197.33504-162.01728 359.45472-351.14496 413.05088 112.3328 50.62656 190.25408 161.8688 190.25408 290.87744C836.7616 752.768 690.49856 896 510.1056 896c-180.44928 0-326.656-143.232-326.656-319.93344"  horiz-adv-x="1024" />

    
    <glyph glyph-name="leimupinleifenleileibie" unicode="&#58896;" d="M315.070171 896H157.549714C70.890057 896 0 825.109943 0 738.450286v-157.520457c0-86.659657 70.890057-157.549714 157.549714-157.549715h157.520457c86.659657 0 157.549714 70.890057 157.549715 157.549715V738.450286C472.619886 825.109943 401.729829 896 315.070171 896z m551.394743 0H708.900571c-86.645029 0-157.535086-70.890057-157.535085-157.549714v-157.520457c0-86.659657 70.890057-157.549714 157.549714-157.549715H866.450286c86.645029 0 157.535086 70.890057 157.535085 157.549715V738.450286C1024 825.109943 953.109943 896 866.450286 896zM315.070171 344.619886H157.549714C70.890057 344.619886 0 273.729829 0 187.070171V29.549714C0-57.109943 70.890057-128 157.549714-128h157.520457c86.659657 0 157.549714 70.890057 157.549715 157.549714V187.055543c0 86.659657-70.890057 157.549714-157.549715 157.549714z m551.394743 0H708.900571c-86.645029 0-157.535086-70.890057-157.535085-157.549715V29.549714c0-86.645029 70.890057-157.535086 157.549714-157.535085H866.450286C953.109943-128 1024-57.109943 1024 29.549714V187.055543c0 86.659657-70.890057 157.549714-157.549714 157.549714z"  horiz-adv-x="1024" />

    
    <glyph glyph-name="dian" unicode="&#58919;" d="M311.333333 476c51.2 0 92.666667-41.466667 92.666667-92.666667S362.533333 290.666667 311.333333 290.666667 218.666667 332.133333 218.666667 383.333333s41.466667 92.666667 92.666666 92.666667z m370.933334 0c51.2 0 92.666667-41.466667 92.666666-92.666667S733.466667 290.666667 682.266667 290.666667s-92.666667 41.466667-92.666667 92.666666 41.466667 92.666667 92.666667 92.666667z m370.933333 0c51.2 0 92.666667-41.466667 92.666667-92.666667S1104.4 290.666667 1053.2 290.666667s-92.666667 41.466667-92.666667 92.666666 41.466667 92.666667 92.666667 92.666667z m-92.666667 0"  horiz-adv-x="1365" />

    
    <glyph glyph-name="chazhaobiaodanliebiao" unicode="&#58891;" d="M96.256 259.96799999999996l192 0c17.664 0 32 14.336 32 32s-14.336 32-32 32l-192 0c-17.664 0-32-14.336-32-32S78.592 259.96799999999996 96.256 259.96799999999996zM1015.04-7.423999999999978l-110.208 110.208c34.112 43.52 55.36 97.6 55.36 157.248 0 141.376-114.624 256-256 256s-256-114.624-256-256 114.624-256 256-256c59.648 0 113.728 21.248 157.248 55.36l110.208-110.208c12.032-11.968 31.36-11.968 43.392 0C1027.008-38.78399999999999 1027.008-19.456000000000017 1015.04-7.423999999999978zM841.408 125.952c-0.576-0.512-1.344-0.704-1.856-1.28s-0.768-1.344-1.28-1.856c-34.624-33.792-81.792-54.784-134.08-54.784-106.048 0-192 85.952-192 192s85.952 192 192 192 192-85.952 192-192C896.256 207.74400000000003 875.264 160.57600000000002 841.408 125.952zM96.256 643.968l576 0c17.664 0 32 14.336 32 32s-14.336 32-32 32l-576 0c-17.664 0-32-14.336-32-32S78.592 643.968 96.256 643.968zM352.256 515.9680000000001l-256 0c-17.664 0-32-14.336-32-32s14.336-32 32-32l256 0c17.664 0 32 14.336 32 32S369.92 515.9680000000001 352.256 515.9680000000001zM352.256 131.96799999999996l-256 0c-17.664 0-32-14.336-32-32s14.336-32 32-32l256 0c17.664 0 32 14.336 32 32S369.92 131.96799999999996 352.256 131.96799999999996z"  horiz-adv-x="1025" />

    
    <glyph glyph-name="jiaju" unicode="&#58945;" d="M348.186256-7.876923a13.128205 13.128205 0 1 0 25.6-5.907692l-20.532512-89.140513a13.128205 13.128205 0 0 0-12.786872-10.161231h-41.038769a13.128205 13.128205 0 0 0-12.865641 10.450051l-18.563283 89.849436a13.128205 13.128205 0 0 0 25.731283 5.330051l16.384-79.373128h19.902359l18.169435 78.953026zM915.876103-11.815385a13.128205 13.128205 0 0 0 25.573743-5.933948l-19.771077-85.175795a13.128205 13.128205 0 0 0-12.786872-10.161231h-41.038769a13.128205 13.128205 0 0 0-12.839384 10.423795l-18.379488 87.32882a13.128205 13.128205 0 1 0 25.705026 5.408821l16.173949-76.931282h19.954872l17.408 75.04082zM182.245744 586.541949a13.128205 13.128205 0 1 0-26.203898-1.417846 548.260103 548.260103 0 0 0-0.840205 29.774769c0.131282 65.719795 22.711795 127.527385 64.170667 182.482051C256.262564 846.217846 309.589333 871.397744 384.052513 884.07959c61.177436 10.423795 110.749538 12.340513 220.947692 11.762872 85.543385-0.420103 126.109538-1.811692 174.946462-7.53559 82.602667-9.714872 130.126769-21.792821 172.504615-51.541334 67.584-47.419077 92.81641-142.756103 83.495385-253.794461a13.128205 13.128205 0 1 0-26.151385 2.205538c8.612103 102.662564-14.309744 189.308718-72.415179 230.11118-37.704205 26.440205-82.051282 37.730462-160.47918 46.946461-47.576615 5.592615-87.433846 6.931692-172.032 7.351795-108.701538 0.525128-157.223385-1.312821-216.405333-11.395282-68.502974-11.657846-116.000821-34.080821-148.138667-76.668718C202.174359 730.978462 181.589333 674.632205 181.458051 614.872615c0-9.216 0.262564-18.642051 0.787693-28.330666zM181.825641 581.815795a13.128205 13.128205 0 0 0-26.203897-1.575385 232.054154 232.054154 0 0 0-0.420103 7.141744v7.089231c0.157538 60.100923 22.89559 116.578462 64.538256 166.623179 37.021538 44.452103 90.217026 67.21641 164.496411 78.664205 61.098667 9.452308 110.644513 11.185231 220.763897 10.660103 85.333333-0.36759 126.030769-1.627897 174.841436-6.826667 82.366359-8.743385 129.811692-19.692308 172.137026-46.631384 68.870564-43.795692 92.947692-117.182359 83.994256-214.226052a13.128205 13.128205 0 0 0-26.151385 2.41559c8.139487 88.221538-12.786872 152.024615-71.942564 189.650051-37.809231 24.050872-82.366359 34.343385-160.820512 42.692923-47.655385 5.067487-87.722667 6.301538-172.189539 6.669129-108.701538 0.525128-157.32841-1.181538-216.615385-10.345026-68.581744-10.555077-116.237128-30.982564-148.322461-69.526974-37.940513-45.581128-58.341744-96.256-58.446769-149.924103 0-1.601641-0.052513-5.855179-0.026257-6.301538 0-0.525128 0.052513-1.155282 0.36759-6.249026zM1009.165128-25.258667h-0.446359a5.513846 5.513846 0 0 0 0.446359 0zM179.331282-21.87159c-43.585641 0-73.491692 19.219692-90.925949 50.674872-10.24 18.510769-14.257231 36.811487-14.756102 48.180513L2.284308 517.48759c-6.826667 36.233846 2.179282 59.680821 22.738051 69.894564 8.297026 4.122256 16.620308 5.251282 23.788308 4.831179 8.585846-0.026256 14.388513 0 39.56841 0.105026l21.635282 0.105026c51.383795 0.157538 76.721231-0.078769 83.810462-1.365334 3.308308-0.577641 6.249026-1.522872 9.977435-2.99323 4.46359-1.837949 5.435077-2.205538 6.459077-2.573129 30.326154-10.686359 43.743179-39.804718 48.758154-84.91323 1.181538-10.791385 1.575385-17.066667 2.625641-38.019283 0.236308-4.75241 0.393846-7.876923 0.577641-10.765128 1.207795-17.513026 2.651897-31.560205 6.275282-63.12041l0.262564-2.258051c3.807179-33.266872 5.461333-49.887179 6.564103-69.579487a13.128205 13.128205 0 1 0-26.203897-1.522872c-1.076513 19.062154-2.70441 35.314872-6.459077 68.109128l-0.262565 2.258051c-3.649641 31.954051-5.12 46.263795-6.354051 64.354462a737.174974 737.174974 0 0 0-0.630154 11.211487c-0.997744 20.374974-1.39159 26.361436-2.494359 36.443897-3.990974 35.997538-13.574564 56.766359-31.402666 63.041641a100.562051 100.562051 0 0 0-5.014975 1.969231 38.990769 38.990769 0 0 1-7.246769 2.520616c-4.621128 0.813949-32.426667 1.102769-79.13682 0.94523l-21.609026-0.105025c-25.23241-0.105026-31.035077-0.131282-41.353846-0.052513a21.687795 21.687795 0 0 1-10.450051-2.126769c-9.005949-4.489846-13.443282-16.01641-8.55959-41.852718L99.774359 79.766974c0.105026-2.100513 0.603897-6.170256 1.811692-11.605333 1.995487-9.137231 5.198769-18.248205 9.846154-26.650256 12.970667-23.420718 34.343385-37.126564 68.004103-37.126564l831.593025-3.518359a75.618462 75.618462 0 0 1 43.926975 9.898666c21.714051 12.603077 37.100308 36.391385 43.165538 75.670975l73.43918 413.98482c0.708923 2.100513 1.837949 6.117744 2.99323 11.395282 2.126769 9.636103 3.282051 19.298462 3.045744 28.041846-0.630154 22.055385-8.874667 32.242872-31.560205 31.140103l-108.307692 0.131282a64.748308 64.748308 0 0 1-24.681026-2.021744c-12.891897-3.990974-20.164923-12.182974-21.267692-29.275897L952.241231 286.851282a13.128205 13.128205 0 1 0-25.941334 4.069744l39.437129 251.746461c1.627897 27.437949 16.75159 44.478359 39.56841 51.515077a87.69641 87.69641 0 0 0 32.951795 3.282051c0.787692-0.078769 36.49641-0.157538 107.126154-0.236307 38.701949 1.916718 57.449026-21.267692 58.446769-56.608821 0.341333-11.185231-1.076513-22.843077-3.623385-34.422154a95.88841 95.88841 0 0 0-3.255795-12.20923l-72.914051-411.858052c-7.220513-46.605128-27.096615-77.351385-55.899897-94.076718a100.352 100.352 0 0 0-57.947898-13.469538c-0.630154 0.052513-277.556513 1.234051-830.805333 3.544615z m860.265026 619.126154h0.367589-0.367589zM886.784 241.060103c21.714051 0 39.305846 17.591795 39.305846 39.305846v41.90523a58.026667 58.026667 0 0 1-58.026667 58.026667H333.771487a58.026667 58.026667 0 0 1-58.026666-58.026667v-41.90523c0-21.714051 17.591795-39.305846 39.279589-39.305846h571.733334z m0-26.256411H315.076923a65.562256 65.562256 0 0 0-65.562256 65.562257v41.90523a84.283077 84.283077 0 0 0 84.309333 84.283077H868.036923a84.283077 84.283077 0 0 0 84.309333-84.283077v-41.90523a65.562256 65.562256 0 0 0-65.562256-65.562257z"  horiz-adv-x="1207" />

    
    <glyph glyph-name="chazhao" unicode="&#58969;" d="M442.514286 14.628571C197.485714 14.628571 0 212.114286 0 453.485714 0 698.514286 197.485714 896 442.514286 896c241.371429 0 442.514286-197.485714 442.514285-442.514286-3.657143-241.371429-201.142857-438.857143-442.514285-438.857143z m0 808.228572C237.714286 822.857143 73.142857 658.285714 73.142857 453.485714s164.571429-369.371429 369.371429-369.371428 369.371429 164.571429 369.371428 369.371428S643.657143 822.857143 442.514286 822.857143zM1060.571429-95.085714c-7.314286 0-14.628571 3.657143-21.942858 7.314285l-296.228571 241.371429c-14.628571 14.628571-18.285714 36.571429-3.657143 51.2 10.971429 14.628571 36.571429 18.285714 51.2 3.657143l296.228572-241.371429c14.628571-14.628571 18.285714-36.571429 3.657142-51.2-7.314286-3.657143-18.285714-10.971429-29.257142-10.971428z"  horiz-adv-x="1099" />

    
    <glyph glyph-name="jifenfenlei" unicode="&#58880;" d="M320 384L192 384c-70.4 0-128-57.6-128-128l0-128c0-70.4 57.6-128 128-128l128 0c70.4 0 128 57.6 128 128l0 128C448 326.4 390.4 384 320 384zM384 128c0-35.2-28.8-64-64-64L192 64c-35.2 0-64 28.8-64 64l0 128c0 35.2 28.8 64 64 64l128 0c35.2 0 64-28.8 64-64L384 128zM768 832l-128 0C569.6 832 512 774.4 512 704l0-128c0-70.4 57.6-128 128-128l128 0c70.4 0 128 57.6 128 128L896 704C896 774.4 838.4 832 768 832zM832 576c0-35.2-28.8-64-64-64l-128 0C604.8 512 576 540.8 576 576L576 704c0 35.2 28.8 64 64 64l128 0c35.2 0 64-28.8 64-64L832 576zM768 384l-128 0c-70.4 0-128-57.6-128-128l0-128c0-70.4 57.6-128 128-128l128 0c70.4 0 128 57.6 128 128l0 128C896 326.4 838.4 384 768 384zM832 128c0-35.2-28.8-64-64-64l-128 0c-35.2 0-64 28.8-64 64l0 128c0 35.2 28.8 64 64 64l128 0c35.2 0 64-28.8 64-64L832 128zM320 832L192 832C121.6 832 64 774.4 64 704l0-128c0-70.4 57.6-128 128-128l128 0c70.4 0 128 57.6 128 128L448 704C448 774.4 390.4 832 320 832zM384 576c0-35.2-28.8-64-64-64L192 512C156.8 512 128 540.8 128 576L128 704c0 35.2 28.8 64 64 64l128 0c35.2 0 64-28.8 64-64L384 576z"  horiz-adv-x="1024" />

    
    <glyph glyph-name="quwenbang" unicode="&#59201;" d="M486.5 71.5c-42.5 0-83.8 8.3-122.6 24.8-37.5 15.9-71.2 38.6-100.1 67.5s-51.6 62.6-67.5 100.1c-16.4 38.9-24.8 80.1-24.8 122.6s8.3 83.8 24.8 122.6c15.9 37.5 38.6 71.2 67.5 100.1 28.9 28.9 62.6 51.6 100.1 67.5 38.9 16.4 80.1 24.8 122.6 24.8s83.8-8.3 122.6-24.8c37.5-15.9 71.2-38.6 100.1-67.5 28.9-28.9 51.6-62.6 67.5-100.1 16.4-38.9 24.8-80.1 24.8-122.6s-8.3-83.8-24.8-122.6c-15.9-37.5-38.6-71.2-67.5-100.1s-62.6-51.6-100.1-67.5c-38.8-16.5-80.1-24.8-122.6-24.8z m0 598.4C330.2 669.9 203 542.8 203 386.5c0-156.3 127.2-283.4 283.4-283.4s283.4 127.2 283.4 283.4c0.1 156.3-127 283.4-283.3 283.4zM209.7 142.1c-43.5 0-73.3 11.6-86.4 34.2-19.2 33.3 0.5 86.2 55.5 149 54.5 62.1 137.2 126.7 233 182S605 602 686.1 618.1c81.8 16.3 137.5 6.9 156.8-26.4s-0.5-86.2-55.5-149C732.8 380.6 650 316 554.3 260.7 458.5 205.4 361.1 166 280 149.9c-26.2-5.3-49.8-7.8-70.3-7.8z m546.5 479.3c-20.3 0-43.5-2.6-69.2-7.7-80.6-16-177.5-55.2-272.9-110.3-95.4-55-177.7-119.4-231.9-181.1-26.3-29.9-44.4-57.6-54-82.2-9.8-25.1-10.1-45.8-1-61.5 9.1-15.8 27.2-25.8 53.8-29.9 26.1-4 59.1-2.1 98.2 5.7 80.6 16 177.5 55.2 272.9 110.3 95.4 55.1 177.7 119.4 231.9 181.2 26.3 29.9 44.4 57.6 54 82.2 9.8 25.1 10.1 45.8 1 61.5-9.1 15.8-27.2 25.8-53.8 29.9-8.9 1.2-18.6 1.9-29 1.9zM209.7 132.1c-47.4 0-80.3 13.6-95.1 39.2-11.1 19.3-11.4 43.5-0.8 71.9 9.9 26.7 29.3 56.5 57.5 88.6 55.2 62.9 138.9 128.3 235.6 184.2 96.7 55.8 195.2 95.6 277.3 111.9 41.9 8.3 77.4 10.2 105.5 5.5 29.9-5 50.8-17.4 61.9-36.7 11.1-19.3 11.4-43.5 0.8-71.9-9.9-26.7-29.3-56.5-57.5-88.6-55.3-63-138.9-128.4-235.6-184.2-96.7-55.8-195.2-95.6-277.3-111.9-26.7-5.3-51-8-72.3-8z m546.5 479.3c-19.6 0-42.2-2.5-67.3-7.5-79.5-15.8-175.4-54.6-269.8-109.1-94.4-54.5-175.9-118.1-229.4-179.1-25.5-29-43-55.7-52.2-79.2-8.6-22.1-9.2-39.9-1.6-52.9 7.5-13 23.2-21.4 46.6-25 25-3.8 56.8-2 94.7 5.6C356.7 180 452.6 218.8 547 273.3c94.4 54.5 175.9 118.1 229.4 179.1 25.5 29 43 55.7 52.2 79.2 8.6 22.1 9.2 39.9 1.6 52.9s-23.2 21.4-46.6 25c-8.3 1.3-17.5 1.9-27.4 1.9zM665 337m-69 0a69 69 0 1 1 138 0 69 69 0 1 1-138 0Z"  horiz-adv-x="1024" />

    
    <glyph glyph-name="wangyiyanxuan" unicode="&#58963;" d="M467.5584 455.2704c-0.512 10.1376-2.9696 15.0528-7.8848 15.0528-11.264-1.7408-41.6768-7.3728-91.3408-17.5104-17.408-1.4336-35.0208-3.9936-52.9408-7.168 0.7168 11.8784 1.4336 22.2208 1.7408 31.5392 3.8912 1.7408 10.5472 3.9936 19.3536 7.3728 30.1056 11.3664 49.9712 19.456 59.4944 24.1664 10.5472 3.6864 18.3296 7.168 23.552 10.3424 7.5776 2.7648 11.4688 6.656 11.4688 11.5712 0 1.7408-1.7408 3.1744-4.9152 4.9152-3.6864 1.9456-7.0656 4.7104-10.24 7.8848-8.0896 4.4032-12.4928 7.3728-13.2096 9.1136h-2.9696c-11.264-14.5408-38.5024-33.0752-81.8176-55.7056 1.4336 31.0272 2.6624 51.3024 3.6864 60.7232 0 3.1744-1.024 5.9392-2.9696 7.8848-8.0896 0-14.9504 0.7168-20.5824 2.4576 16.896 1.7408 35.5328 3.1744 56.1152 4.9152 21.2992 1.7408 41.8816 2.9696 61.952 4.1984 4.9152-1.2288 8.8064-1.7408 11.9808-1.7408 0.7168 0 1.2288 1.4336 1.2288 4.1984-1.2288 4.9152-2.1504 10.6496-2.9696 17.5104-0.512 9.4208-1.9456 13.824-4.9152 13.824-3.8912 0-26.0096-3.1744-66.1504-9.6256-39.6288-6.144-72.4992-10.8544-98.7136-14.5408-23.7568-4.9152-58.2656-8.6016-103.6288-11.5712-14.9504-1.7408-28.672-3.1744-41.3696-4.9152H79.872c0-3.1744 1.024-6.656 2.9696-10.3424 1.2288-4.9152 2.6624-11.0592 4.1984-18.7392 0.7168-5.2224 2.2528-7.8848 4.1984-7.8848 3.6864 0 21.0944 4.1984 52.4288 12.8 15.6672 2.6624 30.8224 5.2224 45.7728 6.656 0.512-1.4336 0.7168-2.9696 1.2288-4.1984 1.2288-13.312 2.2528-26.4192 2.9696-39.424l-6.656 5.4272c-26.9312-12.8-48.0256-22.9376-63.1808-29.5936-20.5824-8.0896-32.0512-12.0832-35.0208-12.0832-1.2288-1.2288-3.3792-1.7408-6.656-1.7408l-1.2288-2.4576c1.4336-1.7408 4.1984-3.9936 7.8848-7.3728 3.6864-5.2224 6.8608-9.4208 9.5232-12.8 1.2288-1.7408 2.4576-2.9696 3.6864-4.1984h4.9152c7.5776 0 23.7568 8.9088 48.7424 26.624 13.9264 11.3664 26.7264 23.1424 37.9904 35.7376 1.7408-25.3952 2.4576-51.3024 2.4576-77.7216-21.504-1.7408-25.4976-1.4336-51.2-4.7104-19.5584-2.6624-34.5088-4.1984-44.544-4.1984-16.1792-1.7408-31.3344-2.4576-45.7728-2.4576l-1.2288-2.4576c1.7408-3.6864 3.8912-9.4208 6.656-17.5104 4.4032-11.3664 7.3728-16.9984 9.0112-16.9984 4.4032 0 12.6976 1.7408 24.7808 5.4272 10.0352 3.1744 27.136 7.168 51.712 11.5712 25.7024 4.9152 34.304 7.3728 65.6384 12.5952 62.976 9.4208 132.3008 15.5648 207.6672 18.7392 28.8768 0 47.0016-0.7168 54.8864-2.4576 1.2288 0 1.7408 0.7168 1.7408 2.4576-3.4816 6.4512-5.9392 15.36-7.8848 26.4192m-180.0192-14.0288c-7.0656 0-14.9504-0.7168-22.7328-2.4576-12.4928-1.7408-26.2144-3.1744-40.8576-4.9152v96.1536c-0.512 8.3968-0.512 14.336-0.512 17.5104 0 2.6624-1.4336 4.9152-4.1984 6.656-2.9696 0-6.3488 0.7168-10.752 2.4576 13.9264 1.4336 27.648 3.1744 40.8576 4.9152 11.776 1.9456 24.4736 3.9936 38.5024 5.4272v-125.7472h-0.3072z m-128.1024-72.2944c-1.9456 2.2528-3.3792 2.6624-4.9152 4.4032-5.632 5.632-11.264 7.68-13.0048 12.5952l-4.4032-0.7168c-0.7168-3.1744-1.2288-5.4272-1.7408-7.168-2.4576-9.8304-2.6624-12.5952-22.7328-60.928-11.4688-25.3952-23.2448-48.3328-35.0208-68.8128-24.4736-40.1408-49.9712-70.5536-76.1856-91.2384-0.512-1.4336 1.024-2.7648 4.1984-3.4816 24.2688-0.7168 48.2304 16.4864 75.1616 48.5376 40.448 48.128 75.4688 129.2288 77.1072 132.1984 5.4272 8.6016 11.0592 16.7936 12.4928 23.1424 0.2048 1.2288 0.2048 1.7408-0.2048 1.9456-3.6864 4.8128-5.3248 4.608-10.752 9.5232m630.3744 4.4032c-3.8912 2.4576-6.656 4.7104-9.3184 6.8608-1.7408 1.4336-3.3792 1.9456-4.608 2.7648-2.6624 1.7408-6.144 3.4816-8.8064 3.4816-1.2288 0-1.9456-4.1984-1.9456-4.1984 0-5.632 0-17.3056-11.4688-43.9296-7.0656-16.7936-13.2096-22.9376-22.016-31.8464-18.6368-19.2512-31.8464-20.992-56.1152-35.2256 0-2.9696 1.7408-4.4032 5.4272-4.4032 26.9312 1.4336 47.0016 3.9936 61.952 15.7696 17.1008 14.0288 25.7024 23.9616 38.912 53.76 11.264 19.7632 13.9264 25.9072 13.9264 29.5936-0.3072 2.7648-2.2528 5.2224-5.9392 7.3728m198.656-87.7568c-4.1984 17.3056-7.5776 33.0752-10.0352 47.3088-1.2288 1.2288-2.4576 1.9456-3.3792 1.9456-0.7168-18.5344-1.7408-35.0208-2.9696-49.3568-0.7168-10.1376-2.4576-17.7152-5.4272-23.4496-1.9456-2.7648-6.3488-4.4032-13.0048-5.9392-7.0656-2.2528-20.3776-3.4816-39.6288-3.4816-37.9904 1.2288-57.5488 13.5168-58.5728 36.4544 2.2528 32.768 6.3488 63.3856 11.9808 91.5456-1.024 1.2288-1.7408 1.9456-2.4576 1.9456-7.0656 2.4576-13.9264 4.4032-20.5824 5.632-3.6864 0.512-3.6864 1.4336-6.3488 1.4336-1.4336 0-3.8912-1.4336-3.1744-4.7104 0.512-4.7104 0.7168-8.0896 0.7168-14.0288-2.9696-49.3568-4.4032-79.1552-4.4032-89.8048 0-34.816 34.816-52.0192 104.5504-52.0192 41.8816 0 62.976 4.4032 62.976 13.1072-0.9216 8.6016-4.3008 22.9376-10.24 43.4176m-92.5696 121.5488c20.0704 1.2288 39.2192 0.7168 57.5488 2.4576 3.8912-1.7408 7.3728-2.4576 10.0352-2.4576 1.024 0 1.4336 1.4336 1.4336 4.4032-1.2288 3.4816-2.2528 9.8304-2.9696 15.0528-0.2048 9.1136-1.7408 13.5168-4.4032 13.5168-3.4816 0-23.9616-2.4576-61.0304-7.3728-26.2144-2.9696-54.1696-4.7104-73.728-5.9392 0.7168 27.3408 1.4336 51.3024 2.4576 73.728 13.2096 1.024 33.9968 2.4576 52.1216 3.9936 12.288 1.2288 23.9616 1.9456 35.2256 1.9456 3.8912 0 7.3728-1.7408 10.0352-1.2288 1.4336 0.2048 1.2288 1.9456 1.024 3.1744-1.2288 4.1984-2.1504 8.9088-2.9696 14.0288-0.2048 7.3728-1.7408 12.0832-3.8912 13.5168-2.1504 0-14.9504-2.6624-38.1952-8.3968-18.3296-2.6624-39.2192-4.7104-52.4288-6.8608 0.7168 17.7152 1.2288 30.8224 1.4336 39.0144 0.7168 6.144 1.4336 14.0288 2.4576 23.4496 1.7408 3.4816 2.6624 8.9088 2.9696 15.5648-0.7168 1.2288-1.7408 2.6624-3.4816 3.9936-1.7408 0-4.1984 0.7168-7.8848 1.9456-13.2096 2.2528-21.504 3.9936-25.1904 5.4272l-1.4336-1.9456c2.2528-9.1136 3.8912-25.9072 5.4272-50.0736 0-14.336-0.2048-27.8528-0.512-40.96-11.4688-1.2288-12.4928-3.1744-29.184-4.9152-8.8064-1.2288-16.384-1.9456-23.552-3.1744h-0.512c3.3792 8.0896 6.3488 14.5408 8.2944 19.456 3.1744 8.0896 5.632 13.5168 7.3728 16.0768 2.9696 3.4816 4.4032 5.9392 4.4032 7.3728 0 2.6624-2.4576 3.9936-7.3728 3.9936-5.8368 2.9696-10.752 5.632-14.4384 8.3968-7.8848 3.6864-12.288 5.9392-13.5168 7.3728-0.7168 0-1.4336-0.7168-2.4576-1.9456 1.024-2.2528 1.4336-4.7104 1.4336-7.3728 0-16.9984-4.9152-39.0144-14.9504-66.3552-2.6624-11.5712-13.9264-31.8464-33.792-60.416 0-1.2288 1.2288-1.9456 3.8912-1.9456h5.8368c6.3488 2.6624 18.8416 16.7936 37.2736 42.9056 1.9456 3.9936 3.8912 7.68 5.8368 11.0592 0.7168-3.4816 1.7408-5.4272 2.9696-5.4272 1.9456 0 11.776 1.7408 29.9008 6.656 16.384 2.7648 18.3296 5.4272 33.0752 8.0896v-72.8064c-21.504-2.6624-38.5024-5.632-79.36-7.8848-13.5168-1.2288-21.8112-1.4336-34.0992-2.2528-17.1008-1.024-26.7264-0.7168-29.184-1.9456 0-1.7408 0.7168-4.4032 1.9456-8.3968 1.024-2.7648 2.2528-6.8608 3.8912-13.1072 0.7168-5.4272 1.7408-8.3968 3.3792-8.3968 3.3792 0 14.9504 2.6624 43.6224 8.3968 18.1248 2.6624 30.6176 3.6864 39.2192 4.9152 8.6016 1.2288 16.896 1.7408 23.2448 2.4576 12.288 1.2288 20.3776 2.7648 31.6416 3.9936 9.1136 1.3312 71.2704 5.2224 91.136 5.2224M598.528 555.4176c9.5232 16.2816 13.5168 25.6 14.2336 36.0448l4.4032 2.2528c4.1984-2.2528 5.8368-3.6864 13.9264-5.4272 5.8368-1.2288 10.5472-1.9456 13.9264-2.6624 3.8912-0.7168 6.3488-1.9456 7.3728-3.9936 1.4336-3.1744 0.7168-6.4512-2.9696-9.6256-8.0896-10.3424-18.1248-20.6848-30.4128-31.8464-11.0592-10.3424-24.7808-21.1968-40.6528-32.768-2.6624 1.024-5.4272 2.2528-7.8848 3.6864 7.0656 9.5232 16.384 24.064 28.0576 44.3392M795.4432 224.1536c-21.504 4.1984-71.0656 12.8-78.336 14.5408-45.7728 9.4208-74.4448 15.0528-94.5152 18.5344 3.8912 3.1744 16.384 21.504 22.7328 29.7984 7.5776 9.4208 11.4688 17.3056 11.4688 24.1664 0 6.144-5.12 12.288-15.6672 18.7392-7.0656 5.2224-15.6672 11.5712-25.1904 19.456-10.752 6.8608-16.1792 11.8784-16.1792 15.0528 0 4.4032 3.3792 11.5712 10.24 21.7088 1.9456 4.1984 7.8848 15.7696 7.8848 15.7696 14.2336 28.8768 27.4432 44.8512 33.792 49.5616 1.9456 0 2.9696 1.024 2.9696 3.4816 0 1.2288-4.608 6.144-14.4384 14.5408-7.5776 7.68-12.4928 12.0832-14.4384 13.5168h-2.9696c-1.4336-2.4576-2.4576-5.2224-3.6864-7.8848-36.0448-5.4272-19.1488-2.9696-52.4288-7.168-21.0944-2.6624-11.776-1.4336-31.1296-1.2288-2.6624 0-3.8912-1.2288-3.8912-3.9936 1.9456-4.1984 3.8912-8.3968 6.144-12.288 2.4576-7.8848 4.1984-11.5712 5.12-11.8784 2.6624-0.7168 7.8848 2.6624 37.4784 7.168 20.7872 3.1744 24.7808 3.4816 30.4128 3.4816-6.144-19.2512-15.1552-30.8224-22.7328-47.8208 0 0-6.3488-15.0528-11.9808-21.9136-11.776-6.4512-12.6976-14.336-12.6976-18.7392 0-5.2224 3.8912-9.4208 11.9808-12.8 7.5776-3.1744 11.776-6.656 19.8656-12.5952 10.0352-8.3968 22.3232-16.7936 28.16-31.3344 0-5.4272-7.3728-15.5648-16.1792-25.6-1.9456-2.2528-9.8304-11.0592-12.4928-13.5168-4.4032-3.9936-9.3184-7.3728-11.9808-9.1136-16.1792-9.4208-26.2144-18.7392-40.6528-20.48-3.1744-1.9456-4.9152-4.7104-4.9152-7.8848 6.8608-6.8608 9.3184-9.8304 16.6912-19.968 5.12-10.3424 8.8064-16.0768 11.9808-16.0768 2.6624 0 7.3728 3.9936 13.9264 11.5712 19.3536 24.6784 24.7808 30.3104 31.6416 30.3104 10.5472 0 66.6624-10.6496 168.5504-32.0512 37.2736-8.192 51.712-10.8544 87.2448-24.3712 27.136-10.8544 45.2608-16.2816 54.1696-16.2816 7.3728 1.7408 15.1552 3.9936 23.9616 6.656 7.5776 1.7408 18.3296 4.9152 32.5632 9.6256 28.3648 10.1376 42.5984 15.7696 42.5984 16.9984 2.4576 1.7408 3.6864 3.9936 3.6864 7.3728-49.9712 1.9456-85.1968 0.2048-148.1728 8.3968-31.5392 4.4032-52.3264 9.4208-80.5888 14.5408"  horiz-adv-x="1024" />

    
    <glyph glyph-name="guanbi" unicode="&#58885;" d="M553.222554 424.91904l216.80128 216.84224a28.34432 28.34432 0 0 1 0 39.936L768.835994 682.88512a28.34432 28.34432 0 0 1-39.89504 0L512.139674 465.75616 295.297434 682.96704a28.34432 28.34432 0 0 1-39.89504 0L254.173594 681.7792a27.8528 27.8528 0 0 1 0-39.89504L471.056794 424.91904 254.214554 208.03584a28.34432 28.34432 0 0 1 0-39.89504l1.18784-1.2288a28.34432 28.34432 0 0 1 39.89504 0l216.84224 216.8832 216.80128-216.84224a28.34432 28.34432 0 0 1 39.89504 0l1.2288 1.18784a28.34432 28.34432 0 0 1 0 39.89504L553.181594 424.96z"  horiz-adv-x="1024" />

    
    <glyph glyph-name="zhuantibluecopy" unicode="&#58961;" d="M857.6 678.4V691.2c0-7.0656 5.7344-12.8 12.8-12.8h-12.8z m0 0h-66.6624V742.4H870.4a51.2 51.2 0 0 0 51.2-51.2v-716.8a51.2 51.2 0 0 0-51.2-51.2H256a51.2 51.2 0 0 0-51.2 51.2v80.896h64v-68.096h588.8V678.4z m0-691.2H870.4a12.8 12.8 0 0 1-12.8-12.8v12.8z m-588.8 0V-25.6a12.8 12.8 0 0 1-12.8 12.8h12.8z m0 0V-25.6a12.8 12.8 0 0 1-12.8 12.8h12.8z m0 0h588.8V678.4h-66.6624V742.4H870.4a51.2 51.2 0 0 0 51.2-51.2v-716.8a51.2 51.2 0 0 0-51.2-51.2H256a51.2 51.2 0 0 0-51.2 51.2v80.896h64v-68.096z m588.8 0H870.4a12.8 12.8 0 0 1-12.8-12.8v12.8z m0 691.2V691.2c0-7.0656 5.7344-12.8 12.8-12.8h-12.8zM436.6848 780.8L166.4 508.3648v-418.7648h588.8V780.8H436.6848zM410.0608 844.8H768a51.2 51.2 0 0 0 51.2-51.2v-716.8a51.2 51.2 0 0 0-51.2-51.2H153.6a51.2 51.2 0 0 0-51.2 51.2V534.7328L410.0096 844.8zM428.8 823.6032h64V588.8c0-45.9264-37.2736-83.2-83.2-83.2H144.896v64H409.6A19.2 19.2 0 0 1 428.8 588.8V823.6032z"  horiz-adv-x="1024" />

    
    <glyph glyph-name="chazhaobiaodanliebiao1" unicode="&#58892;" d="M96.256 259.96799999999996h192c17.664 0 32 14.336 32 32s-14.336 32-32 32h-192c-17.664 0-32-14.336-32-32s14.336-32 32-32z m918.784-267.392L904.832 102.78399999999999c34.112 43.52 55.36 97.6 55.36 157.248 0 141.376-114.624 256-256 256s-256-114.624-256-256 114.624-256 256-256c59.648 0 113.728 21.248 157.248 55.36l110.208-110.208c12.032-11.968 31.36-11.968 43.392 0 11.968 12.032 11.968 31.36 0 43.392zM841.408 125.952c-0.576-0.512-1.344-0.704-1.856-1.28s-0.768-1.344-1.28-1.856c-34.624-33.792-81.792-54.784-134.08-54.784-106.048 0-192 85.952-192 192s85.952 192 192 192 192-85.952 192-192c0.064-52.288-20.928-99.456-54.784-134.08zM96.256 643.968h576c17.664 0 32 14.336 32 32s-14.336 32-32 32h-576c-17.664 0-32-14.336-32-32s14.336-32 32-32z m256-128h-256c-17.664 0-32-14.336-32-32s14.336-32 32-32h256c17.664 0 32 14.336 32 32s-14.336 32-32 32z m0-384h-256c-17.664 0-32-14.336-32-32s14.336-32 32-32h256c17.664 0 32 14.336 32 32s-14.336 32-32 32z"  horiz-adv-x="1025" />

    
    <glyph glyph-name="gouwuche1" unicode="&#58881;" d="M392.6060791 187.48205566000001q14.08996583 0 26.69677735-5.19104003t22.24731445-14.4607544 14.83154297-21.87652587 5.19104004-26.69677735-5.19104004-26.69677734-14.83154297-21.87652588-22.24731445-14.83154297-26.69677734-5.56182862q-14.83154297 0-27.06756593 5.56182862t-21.87652587 14.83154297-14.83154297 21.87652588-5.19104004 26.69677734 5.19104004 26.69677735 14.83154297 21.87652587 21.87652587 14.4607544 27.06756593 5.19104004zM701.10217286 185.99890136q14.08996583 0 27.06756591-5.19104003t22.24731446-14.4607544 14.83154296-21.87652587 5.56182861-26.69677734-5.56182861-26.69677735-14.83154296-21.87652588-22.24731446-14.83154297-27.06756592-5.56182861-26.69677735 5.56182861-21.87652587 14.83154297-14.83154297 21.87652588-5.56182861 26.69677735 5.56182861 26.69677734 14.83154297 21.87652587 21.87652587 14.4607544 26.69677735 5.19104004zM825.68713379 607.21472168q20.76416016 0 32.25860595-5.56182861t16.31469727-13.71917725 4.44946289-17.42706299-2.59552002-15.94390869-9.26971436-27.4383545-15.94390869-45.60699462-17.42706298-49.31488038-12.9776001-38.56201171q-9.64050293-29.66308594-24.4720459-41.15753174t-36.33728027-11.4944458l-25.21362305 0-48.20251465 0-63.03405761 0-68.96667481 0-183.91113281 0 11.12365722-66.74194336 373.75488282 0q35.59570313 0 35.59570312-30.40466309 0-14.83154297-7.04498291-25.58441162t-27.80914306-10.75286865l-35.59570312 0-68.96667481 0-85.28137208 0-86.76452636 0-71.19140625 0-40.78674317 0q-14.83154297 0-24.84283447 6.67419433t-16.68548584 17.42706299-10.75286865 23.35968018-6.30340576 23.73046875q-0.74157715 4.44946289-4.07867432 21.50573731t-8.15734863 42.64068603-10.75286866 57.10144043-11.86523437 63.40484619q-14.08996583 74.899292-31.88781738 166.8548584l-55.61828614 0q-11.12365723 0-18.53942871 5.56182862t-12.23602294 13.34838867-6.67419434 16.68548584-1.85394287 16.31469726q0 14.83154297 10.0112915 24.4720459t27.06756592 9.64050293l16.31469727 0 14.83154296 0 18.53942871 0 25.21362305 0q14.83154297 0 23.73046875-4.44946289t14.08996582-11.12365723 7.41577149-14.08996582 3.70788573-12.60681153q1.4831543-5.93261719 2.9663086-16.68548583t2.96630859-21.87652588q2.22473145-13.34838867 4.44946289-28.17993165l507.23876953 0z"  horiz-adv-x="1024" />

    
    <glyph glyph-name="wodedangxuan" unicode="&#58920;" d="M959.742282-128H62.195973c-18.555705 0-37.111409 9.277852-48.794631 23.366443C1.718121-88.139597-2.748993-69.583893 1.718121-51.028188 48.107383 187.44698 240.536913 365.444295 472.483221 384c77.65906 0 161.84698-9.965101 245.691276-44.327517 24.397315-9.965101 32.300671-16.49396 46.389261-23.366443 134.357047-77.315436 227.13557-210.297987 257.374497-366.990604 4.467114-18.555705 0-37.455034-13.744966-53.605369-11.339597-14.432215-29.895302-23.710067-48.451007-23.710067zM513.718121 342.765101C373.519463 342.765101 257.718121 467.844295 257.718121 619.38255S373.519463 896 513.718121 896 769.718121 770.920805 769.718121 619.38255 653.916779 342.765101 513.718121 342.765101z"  horiz-adv-x="1024" />

    
    <glyph glyph-name="wangyiyanxuan1" unicode="&#58943;" d="M748.544-12.8h-465.92l-155.136 419.84C77.312 414.208 38.4 459.776 38.4 509.952c0 56.832 48.128 104.96 104.96 104.96 56.832-2.048 98.304-45.568 98.304-102.912 4.608-15.872 4.608-31.744 2.048-48.128 20.48-31.744 52.736-54.784 91.136-56.832C394.752 411.648 440.32 455.168 451.584 512V594.432c-20.48 18.432-31.744 45.568-31.744 73.216-4.608 25.088 0 50.176 13.824 70.656s38.912 36.352 64 40.96c25.088 4.608 52.736 0 73.216-15.872 20.48-13.824 36.352-36.352 40.96-64 2.048-9.216 2.048-23.04 0-36.352 0-29.696-13.824-59.392-36.352-79.872v-79.872c13.824-56.832 59.392-95.744 116.224-98.304 40.96 0 77.824 23.04 98.304 56.832-2.048 15.872-2.048 29.696 0 45.568-4.608 23.04 2.048 48.128 15.872 68.608s38.912 36.352 64 40.96c25.088 4.608 50.176 0 73.216-13.824 20.48-13.824 36.352-38.912 40.96-64 2.048-9.216 2.048-20.48 0-34.304 2.048-48.128-31.744-91.136-77.824-100.352l-157.696-417.28z m-433.664 45.568H716.8l155.136 415.744h15.872c29.696 2.048 50.176 27.648 50.176 56.832v4.096c2.048 9.216 2.048 13.824 0 20.48-2.048 15.872-11.264 27.648-23.04 36.352-11.264 6.656-25.088 9.216-38.912 6.656-15.872-2.048-27.648-9.216-34.304-20.48-6.656-11.264-9.216-25.088-6.656-38.912l2.048-4.608-2.048-4.608c-2.048-11.264-2.048-23.04 0-36.352l2.048-9.216-4.608-6.656c-27.648-54.784-82.432-91.136-143.872-91.136-79.36 2.56-145.408 59.904-161.28 137.728V608.256l9.216 6.656c15.872 11.264 27.648 31.744 27.648 52.736v4.608c2.048 9.216 2.048 13.824 0 20.48-2.048 15.872-9.216 27.648-20.48 34.304-11.264 6.656-25.088 11.264-38.912 9.216-13.824-2.048-25.088-9.216-34.304-20.48-6.656-11.264-9.216-25.088-6.656-38.912v-4.608c0-18.432 9.216-36.352 23.04-48.128l9.216-6.656v-109.568C481.28 427.52 415.232 368.128 335.36 363.52h-4.608c-54.784 4.608-104.96 38.912-132.608 89.088l-4.608 9.216 2.048 9.216c2.048 11.264 2.048 23.04 0 36.352v6.656c0 34.304-23.04 56.832-54.784 59.392-31.744 0-56.832-25.088-56.832-59.392 0-34.304 25.088-59.392 59.392-59.392h15.872l155.648-421.888z"  horiz-adv-x="1024" />

    
    <glyph glyph-name="guanbi-copy" unicode="&#58882;" d="M1875.08688725 383.94755969000005l248.85889205 248.86193771c12.58109733 12.57805228 12.58109733 33.23057413 0 45.80786441l-1.36211484 1.36516048c-12.57729086 12.57805228-33.22981272 12.57805228-45.81091004 0L1827.91386235 430.80537169 1579.05116382 680.0868318400001c-12.57729086 12.57805228-33.22981272 12.57805228-45.80786498 0l-1.3651599-1.36211484c-12.89250314-12.58033592-12.89250314-33.23057413 0-45.81091064L1780.74083748 383.94755969000005 1531.87813894 135.08790622000004c-12.57729086-12.58033592-12.57729086-33.22981272 0-45.81091005l1.3651599-1.36211483c12.57805228-12.58033592 33.23057413-12.58033592 45.80786498 0l248.86269852 248.85965348 248.85889207-248.85965348c12.58109733-12.58033592 33.23361979-12.58033592 45.81091006 0l1.36211483 1.36211483c12.58109733 12.58109733 12.58109733 33.23057413 0 45.81091005L1875.08688725 383.94755969000005z m0 0"  horiz-adv-x="3424" />

    
    <glyph glyph-name="gouwuchekong" unicode="&#58883;" d="M332.8 105.47199999999998q19.456 0 36.864-7.168t30.208-19.968 20.48-30.208 7.68-36.864-7.68-36.864-20.48-30.208-30.208-20.48-36.864-7.68q-20.48 0-37.888 7.68t-30.208 20.48-20.48 30.208-7.68 36.864 7.68 36.864 20.48 30.208 30.208 19.968 37.888 7.168zM758.784 103.42399999999998q19.456 0 37.376-7.168t30.72-19.968 20.48-30.208 7.68-36.864-7.68-36.864-20.48-30.208-30.72-20.48-37.376-7.68-36.864 7.68-30.208 20.48-20.48 30.208-7.68 36.864 7.68 36.864 20.48 30.208 30.208 19.968 36.864 7.168zM930.816 685.056q28.672 0 44.544-7.68t22.528-18.944 6.144-24.064-3.584-22.016-13.312-37.888-22.016-62.976-23.552-68.096-18.944-53.248q-13.312-40.96-33.28-56.832t-49.664-15.872l-35.84 0-65.536 0-86.016 0-96.256 0-253.952 0 14.336-92.16 517.12 0q49.152 0 49.152-41.984 0-20.48-9.728-35.84t-38.4-14.336l-49.152 0-94.208 0-118.784 0-119.808 0-99.328 0-55.296 0q-20.48 0-34.304 9.216t-23.04 24.064-14.848 32.256-8.704 32.768q-1.024 6.144-5.632 29.696t-11.264 58.88-14.848 78.848-16.384 87.552q-19.456 103.424-44.032 230.4l-76.8 0q-15.36 0-25.6 7.68t-16.896 18.432-9.216 23.04-2.56 22.528q0 20.48 13.824 33.792t37.376 12.288l103.424 0q20.48 0 32.768-6.144t19.456-15.36 10.24-18.944 5.12-16.896q2.048-8.192 4.096-23.04t4.096-30.208q3.072-18.432 6.144-38.912l700.416 0zM892.928 593.9200000000001l-641.024 2.048 35.84-185.344 535.552-1.024z"  horiz-adv-x="1028" />

    
    <glyph glyph-name="chazhao1" unicode="&#58893;" d="M475.9279768 16.42195416000004c-222.57878737 0-403.65812813 181.07933977-403.65812813 403.65812714 0 222.56972128 181.07933977 403.64906203 403.65812813 403.64906203 222.56166319 0 403.64100295-181.07933977 403.64100295-403.64906203 0-222.57878737-181.07933977-403.65812813-403.64100295-403.65812714z m0 736.951131c-183.77592778 0-333.30106195-149.51707509-333.30106196-333.29300386 0-183.78499387 149.52513417-333.30106195 333.30106196-333.30106196s333.28393777 149.51707509 333.28393776 333.30106196c0 183.77592778-149.50800998 333.29300288-333.28393776 333.29300386zM916.55061073-55.729143330000056c-9.00037786 0-18.00176273 3.43495097-24.87267267 10.30585992L719.73798566 126.52674308999997c-13.74181889 13.7327528-13.74181889 36.01158455 0 49.74433735 13.74181889 13.74181889 36.00251845 13.74181889 49.74433734 0l171.94096041-171.9500265c13.74181889-13.7327528 13.74181889-36.01158455 0-49.74433735-6.87090994-6.87090994-15.87128681-10.30586091-24.87267268-10.30585992zM506.51704387-469.4449328600001c-154.93111245 0-281.2811689 92.87040239-338.00440097 248.41643725l100.27147588 36.56404565C310.08172286-297.74343021999994 396.73933056-362.71126963000006 506.51704387-362.71126963000006v-106.73366323z"  horiz-adv-x="1024" />

    
    <glyph glyph-name="chazhao2" unicode="&#58895;" d="M646.561 284.886c82.945 101.212 76.008 249.842-17.27 343.102-100.037 100.016-262.233 100.016-362.27 0-100.028-100.01-100.028-262.151 0-362.16 93.286-93.267 241.966-100.204 343.206-17.268l19.971 16.36 16.363 19.966z m-424.79-64.318c-125.028 125.004-125.028 327.675 0 452.68 125.03 125.003 327.741 125.003 452.77 0 117.388-117.366 124.562-303.196 21.52-428.929l177.562-177.676c12.503-12.5 12.503-32.767 0-45.268-12.503-12.5-32.774-12.5-45.277 0L650.785 199.051c-125.758-103.02-311.625-95.848-429.013 21.517z"  horiz-adv-x="1024" />

    
    <glyph glyph-name="guanbi1" unicode="&#58884;" d="M574.55 373.65L904.4 703.5c16.65 16.65 16.65 44.1 0 60.75l-1.8 1.8c-16.65 16.65-44.1 16.65-60.75 0L512 435.75 182.15 766.05c-16.65 16.65-44.1 16.65-60.75 0l-1.8-1.8c-17.1-16.65-17.1-44.1 0-60.75l329.85-329.85L119.6 43.799999999999955c-16.65-16.65-16.65-44.1 0-60.75l1.8-1.8c16.65-16.65 44.1-16.65 60.75 0L512 311.1 841.85-18.75c16.65-16.65 44.1-16.65 60.75 0l1.8 1.8c16.65 16.65 16.65 44.1 0 60.75L574.55 373.65z"  horiz-adv-x="1024" />

    
    <glyph glyph-name="guanbi2" unicode="&#58953;" d="M512-119.994C233.612-119.994 8.006 105.588 8.006 384 8.006 662.388 233.612 887.994 512 887.994c278.412 0 503.994-225.606 503.994-503.994 0-278.412-225.582-503.994-503.994-503.994z m0 936.727C273.617 816.733 79.267 622.383 79.267 384S273.617-48.733 512-48.733 944.733 145.617 944.733 384 750.383 816.733 512 816.733zM548.794 384l195.212 195.188c9.588 9.612 9.588 25.6 0 36.818l-1.606 1.582a25.111 25.111 0 0 1-35.188 0L512 420.794 316.812 616.006a25.111 25.111 0 0 1-35.212 0l-1.606-1.606c-9.588-9.612-9.588-25.6 0-36.794L475.23 384 280.017 188.788c-9.588-9.588-9.588-25.6 0-36.77l1.606-1.63c9.612-9.588 25.6-9.588 35.212 0L512 347.23l195.212-195.212c9.588-9.588 25.6-9.588 35.188 0l1.606 1.606c9.588 9.589 9.588 25.6 0 36.794L548.77 384z"  horiz-adv-x="1024" />

    
    <glyph glyph-name="coatLight" unicode="&#58886;" d="M483.834 637.0830000000001l-0.673789-51.9854-73.5052-24.4327a33.1763 33.1763 0 1 1 20.9393-62.963l97.3884 32.3833 78.2528-27.0655a33.1712 33.1712 0 0 1 21.6856 62.6934l-78.315 27.0967 0.404273 30.7041 62.0301 67.6174a33.1712 33.1712 0 0 1-0.684155 45.6103L526.417 823.961a33.1712 33.1712 0 0 1-46.8957 0.653057l-77.0918-75.0082a33.1712 33.1712 0 1 1 46.2634-47.5488l53.3227 51.861 39.9401-41.0078-49.3939-53.8409a33.1712 33.1712 0 0 1-8.72815-21.9862ZM985.653-27.336000000000013l-77.9522 464.573a33.1712 33.1712 0 0 1-22.8052 26.1741l-166.323 51.975a33.1712 33.1712 0 0 1-33.876-8.73852l-160.673-168.126L363.443 506.637a33.1712 33.1712 0 0 1-33.8864 8.75926L163.13 463.38a33.1712 33.1712 0 0 1-22.8052-26.1741L62.498-27.345000000000027a33.1712 33.1712 0 0 1 32.715-38.6547h857.722a33.1712 33.1712 0 0 1 32.715 38.6651Zm-851.286 27.6772l68.0111 405.797 127.315 39.7847 170.345-178.295a33.1712 33.1712 0 0 1 23.9869-10.2519 33.1712 33.1712 0 0 1 23.9869 10.2519l170.427 178.295 127.201-39.7639 68.0942-405.818Z"  horiz-adv-x="1051" />

    
    <glyph glyph-name="zhuantihui" unicode="&#58889;" d="M649.3 113.9H248.1c-50.5 0-91.6 41.1-91.6 91.6V704.3c0 50.5 41.1 91.6 91.6 91.6h401.1c50.5 0 91.6-41.1 91.6-91.6v-498.8c0.1-50.5-41-91.6-91.5-91.6z m-401.2 621c-16.8 0-30.5-13.7-30.5-30.5v-498.8c0-16.8 13.7-30.5 30.5-30.5h401.1c16.8 0 30.5 13.7 30.5 30.5V704.3c0 16.8-13.7 30.5-30.5 30.5H248.1zM781.5-28.6H406.6c-48.3 0-87.6 39.3-87.6 87.6 0 16.9 13.7 30.5 30.5 30.5 16.9 0 30.5-13.7 30.5-30.5 0-14.6 11.9-26.5 26.5-26.5h374.8c14.6 0 26.5 11.9 26.5 26.5V525.1c0 14.6-11.9 26.5-26.5 26.5-16.9 0-30.5 13.7-30.5 30.5 0 16.9 13.7 30.5 30.5 30.5 48.3 0 87.6-39.3 87.6-87.6v-466c0.2-48.3-39.1-87.6-87.4-87.6zM573.5 497.7H313.8c-23.7 0-43.2 19.4-43.2 43.2v5.3c0 23.7 19.4 43.2 43.2 43.2h259.7c23.7 0 43.2-19.4 43.2-43.2v-5.3c0-23.8-19.4-43.2-43.2-43.2zM578.2 345H309.1c-21.2 0-38.5 17.3-38.5 38.5v14.6c0 21.2 17.3 38.5 38.5 38.5h269.1c21.2 0 38.5-17.3 38.5-38.5v-14.6c0-21.2-17.3-38.5-38.5-38.5z"  horiz-adv-x="1024" />

    
    <glyph glyph-name="wangyiyanxuan2" unicode="&#59015;" d="M581.840593 782.222222L776.641939 557.252525a86.195286 86.195286 0 0 1 93.090909-25.858586s109.468013 37.063973 204.282829 65.508418l-129.29293-458.558923H238.783354L110.352377 593.454545c86.195286-27.582492 182.734007-61.198653 184.457913-61.198653a86.195286 86.195286 0 0 1 93.952862 24.996633l193.077441 224.969697m0 113.777778a34.478114 34.478114 0 0 1-25.858586-12.06734l-232.727273-270.653199S138.796822 677.925926 43.982007 702.922559H34.500525a34.478114 34.478114 0 0 1-33.616161-42.23569l172.390572-608.538721h835.232323l172.390573 610.262626a34.478114 34.478114 0 0 1-32.754209 43.097644h-8.619529C1035.227798 680.511785 840.426451 613.279461 840.426451 613.279461L604.251367 883.93266A34.478114 34.478114 0 0 1 581.840593 896zM150.864162-41.804714m43.097643 0l775.757575 0q43.097643 0 43.097644-43.097643l0 0q0-43.097643-43.097644-43.097643l-775.757575 0q-43.097643 0-43.097643 43.097643l0 0q0 43.097643 43.097643 43.097643Z"  horiz-adv-x="1181" />

    
    <glyph glyph-name="wangyiyanxuan3" unicode="&#58894;" d="M581.840593 782.222222L776.641939 557.252525a86.195286 86.195286 0 0 1 93.090909-25.858586s109.468013 37.063973 204.282829 65.508418l-129.29293-458.558923H238.783354L110.352377 593.454545c86.195286-27.582492 182.734007-61.198653 184.457913-61.198653a86.195286 86.195286 0 0 1 93.952862 24.996633l193.077441 224.969697m0 113.777778a34.478114 34.478114 0 0 1-25.858586-12.06734l-232.727273-270.653199S138.796822 677.925926 43.982007 702.922559H34.500525a34.478114 34.478114 0 0 1-33.616161-42.23569l172.390572-608.538721h835.232323l172.390573 610.262626a34.478114 34.478114 0 0 1-32.754209 43.097644h-8.619529C1035.227798 680.511785 840.426451 613.279461 840.426451 613.279461L604.251367 883.93266A34.478114 34.478114 0 0 1 581.840593 896zM150.864162-41.804714m43.097643 0l775.757575 0q43.097643 0 43.097644-43.097643l0 0q0-43.097643-43.097644-43.097643l-775.757575 0q-43.097643 0-43.097643 43.097643l0 0q0 43.097643 43.097643 43.097643Z"  horiz-adv-x="1181" />

    
    <glyph glyph-name="peijianguanli" unicode="&#58976;" d="M888.832 736.256h-188.416V801.28c0 34.304-27.136 64.512-63.488 64.512H385.536c-34.304 0-63.488-28.672-63.488-64.512v-64.512H135.168C66.048 736.768 10.24 679.424 10.24 608.768V384h-1.536v-353.792c0-70.656 56.32-128 124.928-128h755.2c69.12 0 124.928 57.344 124.928 128v59.392h1.536V608.256c0 72.192-57.344 128-126.464 128z m-503.296 33.28c0 17.408 14.336 31.744 31.744 31.744h188.416c17.408 0 31.744-14.336 31.744-31.744l1.536-33.28H385.536v33.28z m235.52-505.856l30.208 30.208 137.216-137.216c26.112-26.112 26.112-70.656 0-96.768l-34.816-34.816c-26.112-26.112-70.656-26.112-96.768 0l-137.216 137.216 30.208 30.208-24.064 24.064-197.12-197.12c-17.92-17.92-47.104-17.92-65.024 0l-35.84 33.28c-17.92 17.92-17.92 47.104 0 65.024l198.656 198.656L348.16 394.752l-1.536-1.536-68.096 35.84-60.416 79.36 87.04 87.04L384 535.04l35.84-68.096-1.536-1.536L496.64 387.072l35.328 35.328c-12.288 47.104-1.536 99.84 35.84 137.216 45.568 44.544 112.128 52.736 166.4 25.088l-90.112-88.576 59.392-59.392L793.6 526.848c27.648-53.76 19.456-121.856-25.088-166.4-37.376-37.376-88.576-49.664-135.68-35.84l-36.864-36.864 25.088-24.064z"  horiz-adv-x="1024" />

    
    <glyph glyph-name="bao1" unicode="&#58887;" d="M895.561143 755.712H703.634286V819.2a63.634286 63.634286 0 0 1-63.926857 63.341714H383.853714a63.634286 63.634286 0 0 1-64-63.341714v-63.414857H127.926857A127.268571 127.268571 0 0 1 0 629.028571v-570.221714a127.268571 127.268571 0 0 1 128-126.683428h767.561143a127.268571 127.268571 0 0 1 127.926857 126.683428V629.028571a127.268571 127.268571 0 0 1-128 126.683429z m-511.707429 31.670857c0 17.554286 14.262857 31.744 31.963429 31.744h191.853714c17.700571 0 32.036571-14.189714 32.036572-31.744v-31.670857H383.853714v31.670857z m575.634286-728.576a63.634286 63.634286 0 0 0-63.926857-63.341714H127.926857a63.634286 63.634286 0 0 0-63.926857 63.341714V407.259429h324.315429a125.074286 125.074286 0 0 1-4.461715-31.670858 127.268571 127.268571 0 0 1 127.926857-126.683428 127.268571 127.268571 0 0 1 127.926858 126.683428c0 10.971429-1.901714 21.504-4.534858 31.670858h324.315429v-348.452572zM447.780571 375.588571c0 11.629714 3.364571 22.308571 8.850286 31.670858H566.857143a62.537143 62.537143 0 0 0 8.850286-31.670858 63.634286 63.634286 0 0 0-63.926858-63.341714 63.634286 63.634286 0 0 0-64 63.341714z m511.707429 95.085715H64V629.028571a63.634286 63.634286 0 0 0 63.926857 63.341715h767.634286a63.634286 63.634286 0 0 0 63.926857-63.341715v-158.427428z"  horiz-adv-x="1024" />

    
    <glyph glyph-name="gongzuojingli" unicode="&#58897;" d="M801.758-34.098H282.073c-71.66 0-129.921 58.261-129.921 129.921V511.571c0 71.66 58.262 129.921 129.921 129.921h519.685c71.66 0 129.921-58.262 129.921-129.921v-415.748c0-71.66-58.261-129.921-129.921-129.921zM282.073 589.524c-42.986 0-77.953-34.967-77.953-77.953v-415.748c0-42.985 34.967-77.953 77.953-77.953h519.685c42.985 0 77.953 34.968 77.953 77.953V511.571c0 42.986-34.968 77.953-77.953 77.953H282.073zM697.821 615.508c-14.362 0-25.983 11.622-25.983 25.984 0 28.674-23.295 51.968-51.969 51.968H463.963c-28.674 0-51.968-23.294-51.968-51.968 0-14.362-11.622-25.984-25.984-25.984s-25.984 11.622-25.984 25.984c0 57.297 46.64 103.937 103.937 103.937H619.87c57.297 0 103.937-46.64 103.937-103.937-0.002-14.362-11.623-25.984-25.986-25.984zM905.695 381.65H178.136c-14.362 0-25.984 11.622-25.984 25.984s11.622 25.984 25.984 25.984h727.559c14.363 0 25.984-11.622 25.984-25.984s-11.621-25.984-25.984-25.984zM593.884 407.634c0-28.725-23.244-51.968-51.969-51.968s-51.968 23.243-51.968 51.968c0 28.725 23.244 51.968 51.968 51.968s51.969-23.243 51.969-51.968z"  horiz-adv-x="1024" />

    
    <glyph glyph-name="fabu" unicode="&#58898;" d="M753.871-5.662c-3.625 0-7.207 0.873-10.527 2.621l-179.447 95.664c-10.92 5.81-15.026 19.352-9.26 30.271a22.436 22.436 0 0 0 30.315 9.217l148.869-79.37 42.547 650.823-516.741-397.99 162.979-86.884c10.898-5.81 15.048-19.352 9.217-30.272-5.81-10.877-19.329-15.026-30.272-9.217L207.995 282.423c-6.706 3.582-11.139 10.309-11.75 17.866a22.402 22.402 0 0 0 8.627 19.613L788.25 769.219a22.71 22.71 0 0 0 24.199 2.01c7.732-4.15 12.318-12.45 11.795-21.186l-48.051-734.781c-0.524-7.602-4.805-14.416-11.445-18.085-3.407-1.878-7.12-2.839-10.877-2.839zM490.074 144.299c-3.582 0-7.164 0.83-10.527 2.621-10.877 5.81-15.027 19.352-9.217 30.271l311.805 584.82c5.854 10.921 19.308 15.027 30.315 9.217 10.877-5.81 15.027-19.352 9.174-30.272l-311.805-584.82c-4.019-7.556-11.795-11.837-19.745-11.837zM490.424 9.189h-0.262c-12.318 0.131-22.19 10.266-22.104 22.628l1.485 124.363c0.131 12.274 10.134 22.104 22.365 22.104h0.262c12.318-0.131 22.191-10.266 22.103-22.628l-1.484-124.363c-0.132-12.275-10.134-22.104-22.365-22.104z"  horiz-adv-x="1024" />

    
    <glyph glyph-name="kaoqianguanli" unicode="&#58899;" d="M133.781 534.572h758.414v-55.025H133.781zM267.583 625.841c-15.195 0-27.513 12.318-27.513 27.513V762.527c0 15.195 12.318 27.513 27.513 27.513s27.513-12.318 27.513-27.513v-109.173c0-15.195-12.318-27.513-27.513-27.513zM758.393 625.841c-15.195 0-27.513 12.318-27.513 27.513V762.527c0 15.195 12.317 27.513 27.513 27.513s27.513-12.318 27.513-27.513v-109.173c0-15.195-12.318-27.513-27.513-27.513zM818.488-44.513H207.489c-61.628 0-111.766 51.534-111.766 114.878v491.28c0 63.344 50.138 114.878 111.766 114.878h610.999c61.641 0 111.788-51.534 111.788-114.878v-491.28c0-63.344-50.148-114.878-111.788-114.878zM207.489 621.498c-31.287 0-56.74-26.85-56.74-59.853v-491.28c0-33.003 25.454-59.853 56.74-59.853h610.999c31.299 0 56.763 26.85 56.763 59.853v491.28c0 33.003-25.464 59.853-56.763 59.853H207.489zM449.794 86.513c-7.206 0-14.403 2.813-19.802 8.409l-168.55 174.687c-10.55 10.935-10.239 28.352 0.696 38.902 10.935 10.551 28.352 10.239 38.903-0.695l168.55-174.687c10.55-10.935 10.239-28.352-0.696-38.902a27.417 27.417 0 0 0-19.101-7.714zM449.788 86.513a27.422 27.422 0 0 0-19.101 7.714c-10.935 10.551-11.246 27.969-0.695 38.902L724.98 438.842c10.55 10.935 27.969 11.246 38.903 0.695 10.934-10.551 11.245-27.968 0.694-38.903L469.59 94.922c-5.398-5.596-12.596-8.409-19.802-8.409z"  horiz-adv-x="1024" />

    
    <glyph glyph-name="xiayibu" unicode="&#58901;" d="M512-15.513c-214.929 0-389.764 174.835-389.764 389.764 0 214.928 174.835 389.764 389.764 389.764 214.928 0 389.764-174.835 389.764-389.764S726.928-15.513 512-15.513z m0 727.559c-186.254 0-337.795-151.541-337.795-337.795 0-186.255 151.541-337.795 337.795-337.795 186.254 0 337.795 151.54 337.795 337.795 0 186.254-151.541 337.795-337.795 337.795zM457.342 109.942a25.9 25.9 0 0 0-18.372 7.612c-10.15 10.15-10.15 26.594 0 36.743L658.923 374.25 438.97 594.204c-10.15 10.15-10.15 26.593 0 36.743 10.15 10.15 26.593 10.15 36.744 0l238.324-238.324c10.15-10.15 10.15-26.594 0-36.744L475.714 117.555a25.9 25.9 0 0 0-18.372-7.613z"  horiz-adv-x="1024" />

    
    <glyph glyph-name="renshiguanli" unicode="&#58902;" d="M903.064 178.981H628.84c-14.848 0-26.884 12.036-26.884 26.884s12.036 26.884 26.884 26.884h274.224c14.848 0 26.884-12.036 26.884-26.884s-12.037-26.884-26.884-26.884zM903.064 300.8H628.84c-14.848 0-26.884 12.036-26.884 26.884s12.036 26.884 26.884 26.884h274.224c14.848 0 26.884-12.036 26.884-26.884S917.911 300.8 903.064 300.8zM903.064 57.074H628.84c-14.848 0-26.884 12.036-26.884 26.884s12.036 26.884 26.884 26.884h274.224c14.848 0 26.884-12.036 26.884-26.884s-12.037-26.884-26.884-26.884zM517.872 369.63c-60.7 0-117.795 23.085-160.769 65.004-43.151 42.092-66.916 98.11-66.916 157.735 0 59.661 23.763 115.705 66.912 157.809 42.97 41.928 100.066 65.019 160.772 65.019 60.707 0 117.811-23.09 160.791-65.016C721.828 708.075 745.6 652.03 745.6 592.37c0-59.624-23.772-115.643-66.94-157.738-42.984-41.918-100.087-65.002-160.788-65.002z m0 391.798c-95.897 0-173.916-75.839-173.916-169.059 0-93.171 78.018-168.971 173.916-168.971 95.922 0 173.961 75.8 173.961 168.971 0 93.219-78.039 169.059-173.961 169.059zM123.57-4.494a27.25 27.25 0 0 0-3.031 0.17c-14.755 1.656-25.375 14.959-23.719 29.715 11.845 105.562 62.573 203.006 142.84 274.383 80.797 71.848 185.228 111.417 294.053 111.417 16.409 0 32.843-0.894 48.844-2.657 14.759-1.626 25.404-14.909 23.778-29.667-1.626-14.76-14.911-25.406-29.667-23.778-14.053 1.549-28.506 2.334-42.955 2.334-196.985 0-361.837-145.32-383.46-338.027-1.541-13.738-13.179-23.89-26.683-23.89zM668.265-22.694H125.221c-14.848 0-26.884 12.036-26.884 26.884s12.037 26.884 26.884 26.884h543.044c14.848 0 26.885-12.036 26.885-26.884s-12.037-26.884-26.885-26.884z"  horiz-adv-x="1024" />

    
    <glyph glyph-name="shouye" unicode="&#58903;" d="M901.237 397.511c0.793 2.398 1.468 4.857 1.507 7.375v0.198c0 1.11-0.476 2.062-0.634 3.132-0.238 2.022-0.396 4.044-1.189 5.947-0.793 2.062-2.181 3.786-3.489 5.511-0.595 0.753-0.833 1.626-1.507 2.32l-0.238 0.277c-0.039 0.02-0.079 0.04-0.079 0.06l-308.862 320.2c-19.665 20.339-45.833 31.54-73.746 31.54-27.912 0-54.1-11.22-73.706-31.56l-308.881-320.18c-0.02-0.02-0.06-0.04-0.08-0.06l-0.257-0.277c-0.674-0.694-0.912-1.566-1.487-2.32-1.328-1.725-2.696-3.449-3.528-5.511-0.773-1.903-0.932-3.925-1.189-5.947-0.139-1.071-0.635-2.022-0.635-3.132 0-0.08 0.04-0.139 0.04-0.198 0.02-2.518 0.694-4.976 1.487-7.375 0.218-0.635 0.159-1.348 0.416-1.963 0.139-0.317 0.436-0.535 0.575-0.853 1.229-2.597 2.795-4.996 4.837-6.978 0.04-0.06 0.06-0.119 0.099-0.159 0.833-0.793 1.883-1.149 2.795-1.804 1.586-1.17 3.073-2.438 4.916-3.191 2.954-1.189 6.066-1.844 9.199-1.844h77.136v-361.812c0-13.441 10.903-24.345 24.364-24.345h162.4c13.46 0 24.364 10.903 24.364 24.345V162.911h154.291v-144.003c0-13.441 10.863-24.345 24.344-24.345h162.4c13.48 0 24.344 10.903 24.344 24.345V380.72H878.4c0.951 0 1.744 0.416 2.616 0.535 2.221 0.237 4.441 0.456 6.503 1.309 1.982 0.792 3.568 2.121 5.233 3.37 0.833 0.615 1.824 0.892 2.537 1.625 0.08 0.04 0.08 0.099 0.119 0.159 2.022 1.982 3.608 4.381 4.837 6.978 0.119 0.317 0.437 0.536 0.595 0.853 0.239 0.614 0.16 1.327 0.397 1.962zM492.7 211.599h-81.2c-13.461 0-24.364-10.903-24.364-24.344v-144.003H273.464V401.396c0 0.654-0.317 1.209-0.376 1.844 0.06 0.634 0.376 1.189 0.376 1.844 0 13.46-10.903 24.364-24.364 24.364h-44.148l269.431 279.244c10.309 10.745 24.027 16.652 38.617 16.672 14.591 0 28.31-5.927 38.697-16.672l269.371-279.244H776.9c-13.48 0-24.344-10.903-24.344-24.364 0-0.654 0.316-1.209 0.356-1.864-0.04-0.634-0.356-1.189-0.356-1.843v-358.125H638.845V187.255c0 13.44-10.864 24.344-24.345 24.344H492.7z"  horiz-adv-x="1024" />

    
    <glyph glyph-name="xiazaier" unicode="&#58904;" d="M516.74-5.764c-14.363 0-25.984 11.622-25.984 25.984V552.897c0 14.363 11.622 25.984 25.984 25.984 14.362 0 25.984-11.622 25.984-25.984V20.22c0.001-14.362-11.621-25.984-25.984-25.984zM516.74-5.764c-6.598 0-13.195 2.486-18.22 7.46-10.251 10.1-10.353 26.543-0.304 36.743l101.602 103.176c10.049 10.303 26.594 10.303 36.743 0.305 10.252-10.1 10.354-26.542 0.305-36.743L535.264 2.001c-5.075-5.177-11.824-7.765-18.524-7.765zM516.74-5.764a25.98 25.98 0 0 0-18.017 7.257L391.64 104.669c-10.353 9.947-10.658 26.441-0.71 36.744 9.998 10.454 26.441 10.606 36.743 0.71l107.084-103.176c10.353-9.947 10.657-26.44 0.71-36.743-5.126-5.329-11.926-7.968-18.727-7.968zM773.842-5.764c-14.362 0-25.984 11.622-25.984 25.984s11.622 25.984 25.984 25.984c42.986 0 77.953 34.967 77.953 77.952V643.843c0 42.985-34.967 77.953-77.953 77.953H254.157c-42.986 0-77.953-34.967-77.953-77.953v-519.686c0-42.985 34.967-77.952 77.953-77.952 14.362 0 25.984-11.622 25.984-25.984s-11.622-25.984-25.984-25.984c-71.66 0-129.921 58.262-129.921 129.921V643.843c0 71.66 58.261 129.921 129.921 129.921h519.685c71.66 0 129.922-58.261 129.922-129.921v-519.686c0-71.659-58.262-129.921-129.922-129.921z"  horiz-adv-x="1024" />

    


  </font>
</defs>
</svg>
